<svg width="118" height="41" viewBox="0 0 118 41" fill="none" xmlns="http://www.w3.org/2000/svg">
<g clip-path="url(#clip0_13_62)">
<path d="M17.1414 7.14992L17.533 3.51355C17.533 3.51355 25.9918 12.5206 26.7302 19.894C27.4687 27.2674 26.6072 30.6353 17.9806 40.0563C17.9806 40.0563 33.1526 21.7849 17.1526 7.14992H17.1414Z" fill="#78A627"/>
<path d="M18.2378 32.9287L17.8462 36.5651C17.8462 36.5651 9.3427 27.5581 8.60424 20.1847C7.86578 12.8112 8.72732 9.45457 17.3987 0.0335693C17.3987 0.0335693 2.14828 18.3049 18.2378 32.9287Z" fill="#78A627"/>
<path d="M17.8237 36.5427H9.35379L2.73001 26.8084C1.00693 24.291 0.100631 21.3819 -6.84955e-05 18.4616C-6.84955e-05 18.3609 -6.84955e-05 18.249 -6.84955e-05 18.1483C-0.0448238 14.9818 0.861472 11.8154 2.73001 9.08533L8.90624 0H17.3762L11.2 9.08533C9.34261 11.8154 8.43631 14.9818 8.46988 18.1483C8.46988 18.249 8.46988 18.3609 8.46988 18.4616C8.55939 21.3819 9.46568 24.291 11.1888 26.8084L17.8126 36.5427H17.8237Z" fill="#B1F128"/>
<path d="M35.3566 21.908C35.4013 25.0744 34.495 28.2409 32.6265 30.9709L26.4503 40.0563H17.9803L24.1566 30.9709C26.0139 28.2409 26.9314 25.0744 26.8866 21.908C26.8866 21.8073 26.8866 21.6954 26.8866 21.5947C26.7971 18.6744 25.8908 15.7653 24.1678 13.2478L17.5328 3.51355H26.0027L32.6265 13.2478C34.3496 15.7765 35.2559 18.6744 35.3454 21.5947C35.3454 21.6954 35.3454 21.8073 35.3454 21.908H35.3566Z" fill="#B1F128"/>
</g>
<path d="M43.9993 19.0281V9.34538H40.2825V7.54283H49.6382V9.34538H45.9214V19.0281H43.9993ZM51.073 19.0281V7.54283H52.9952V19.0281H51.073ZM57.809 19.0281L54.4511 7.54283H56.469L58.7581 15.8377L61.0392 7.55878L63.0571 7.54283L65.3462 15.8377L67.6273 7.54283H69.6451L66.2953 19.0281H64.397L62.0441 10.8608L59.7072 19.0281H57.809ZM71.1061 19.0281V7.54283H73.0283V19.0281H71.1061ZM41.2396 33.0281V21.5428H45.9852C46.0969 21.5428 46.2405 21.5481 46.4159 21.5588C46.5914 21.5641 46.7536 21.5801 46.9025 21.6066C47.5671 21.7077 48.1148 21.9283 48.5455 22.2686C48.9815 22.6089 49.3032 23.0396 49.5106 23.5607C49.7233 24.0765 49.8296 24.6508 49.8296 25.2835C49.8296 25.9109 49.7233 26.4852 49.5106 27.0063C49.2979 27.5221 48.9735 27.9501 48.5375 28.2904C48.1068 28.6307 47.5618 28.8514 46.9025 28.9524C46.7536 28.9737 46.5888 28.9896 46.408 29.0003C46.2325 29.0109 46.0916 29.0162 45.9852 29.0162H43.1618V33.0281H41.2396ZM43.1618 27.2216H45.9055C46.0118 27.2216 46.1315 27.2163 46.2644 27.2057C46.3973 27.1951 46.5196 27.1738 46.6313 27.1419C46.9503 27.0621 47.2002 26.9212 47.381 26.7192C47.5671 26.5171 47.6974 26.2885 47.7718 26.0332C47.8516 25.778 47.8915 25.5281 47.8915 25.2835C47.8915 25.0389 47.8516 24.789 47.7718 24.5338C47.6974 24.2732 47.5671 24.0419 47.381 23.8399C47.2002 23.6378 46.9503 23.4969 46.6313 23.4172C46.5196 23.3853 46.3973 23.3666 46.2644 23.3613C46.1315 23.3507 46.0118 23.3454 45.9055 23.3454H43.1618V27.2216ZM51.4275 33.0281V24.4141H53.1264V26.5118L52.919 26.2406C53.0254 25.9535 53.1663 25.6929 53.3417 25.459C53.5225 25.2197 53.7379 25.023 53.9878 24.8688C54.2005 24.7252 54.4344 24.6135 54.6897 24.5338C54.9502 24.4487 55.2161 24.3982 55.4872 24.3822C55.7584 24.361 56.0216 24.3716 56.2769 24.4141V26.2087C56.0216 26.1343 55.7265 26.1103 55.3915 26.1369C55.0619 26.1635 54.7641 26.2566 54.4982 26.4161C54.2324 26.5597 54.0144 26.7431 53.8442 26.9664C53.6794 27.1897 53.5571 27.445 53.4773 27.7321C53.3976 28.0139 53.3577 28.3197 53.3577 28.6493V33.0281H51.4275ZM61.4476 33.2674C60.5862 33.2674 59.8338 33.0733 59.1904 32.6851C58.547 32.297 58.0472 31.7626 57.6909 31.082C57.34 30.396 57.1645 29.6091 57.1645 28.7211C57.1645 27.8172 57.3453 27.0249 57.7069 26.3443C58.0685 25.6637 58.5709 25.132 59.2143 24.7491C59.8577 24.3663 60.6021 24.1749 61.4476 24.1749C62.3143 24.1749 63.0693 24.3689 63.7127 24.7571C64.3561 25.1453 64.8559 25.6823 65.2122 26.3682C65.5684 27.0488 65.7466 27.8331 65.7466 28.7211C65.7466 29.6144 65.5658 30.404 65.2042 31.0899C64.848 31.7705 64.3481 32.3049 63.7047 32.6931C63.0614 33.0759 62.309 33.2674 61.4476 33.2674ZM61.4476 31.4648C62.2133 31.4648 62.7822 31.2096 63.1544 30.6991C63.5266 30.1887 63.7127 29.5293 63.7127 28.7211C63.7127 27.8863 63.524 27.2216 63.1464 26.7271C62.7689 26.2273 62.2026 25.9774 61.4476 25.9774C60.9318 25.9774 60.5064 26.0944 60.1714 26.3284C59.8418 26.557 59.5972 26.8787 59.4377 27.2934C59.2781 27.7029 59.1984 28.1788 59.1984 28.7211C59.1984 29.5559 59.3871 30.2232 59.7647 30.7231C60.1475 31.2176 60.7085 31.4648 61.4476 31.4648ZM72.5526 33.0281C71.9837 33.1344 71.4253 33.1796 70.8777 33.1637C70.3353 33.153 69.8488 33.0547 69.4181 32.8686C68.9874 32.6771 68.6604 32.3767 68.4371 31.9673C68.2403 31.5951 68.1366 31.2149 68.126 30.8267C68.1154 30.4386 68.11 29.9999 68.11 29.5107V22.0214H70.0243V29.3991C70.0243 29.7447 70.0269 30.0478 70.0322 30.3083C70.0429 30.5689 70.0987 30.7815 70.1997 30.9464C70.3911 31.2654 70.6969 31.4435 71.1169 31.4808C71.537 31.518 72.0156 31.4967 72.5526 31.417V33.0281ZM66.5468 25.9216V24.4141H72.5526V25.9216H66.5468ZM77.7732 33.2674C76.9118 33.2674 76.1594 33.0733 75.516 32.6851C74.8726 32.297 74.3728 31.7626 74.0165 31.082C73.6656 30.396 73.4901 29.6091 73.4901 28.7211C73.4901 27.8172 73.6709 27.0249 74.0325 26.3443C74.3941 25.6637 74.8965 25.132 75.5399 24.7491C76.1833 24.3663 76.9277 24.1749 77.7732 24.1749C78.6399 24.1749 79.3949 24.3689 80.0383 24.7571C80.6817 25.1453 81.1815 25.6823 81.5378 26.3682C81.894 27.0488 82.0722 27.8331 82.0722 28.7211C82.0722 29.6144 81.8914 30.404 81.5298 31.0899C81.1736 31.7705 80.6737 32.3049 80.0303 32.6931C79.387 33.0759 78.6346 33.2674 77.7732 33.2674ZM77.7732 31.4648C78.5389 31.4648 79.1078 31.2096 79.48 30.6991C79.8522 30.1887 80.0383 29.5293 80.0383 28.7211C80.0383 27.8863 79.8496 27.2216 79.472 26.7271C79.0945 26.2273 78.5282 25.9774 77.7732 25.9774C77.2574 25.9774 76.832 26.0944 76.497 26.3284C76.1674 26.557 75.9228 26.8787 75.7633 27.2934C75.6037 27.7029 75.524 28.1788 75.524 28.7211C75.524 29.5559 75.7127 30.2232 76.0903 30.7231C76.4731 31.2176 77.0341 31.4648 77.7732 31.4648ZM87.5702 33.2674C86.6822 33.2674 85.9245 33.0706 85.297 32.6771C84.6696 32.2783 84.1884 31.736 83.8534 31.0501C83.5237 30.3641 83.3562 29.5878 83.3509 28.7211C83.3562 27.8384 83.529 27.0568 83.8694 26.3762C84.215 25.6903 84.7042 25.1532 85.3369 24.7651C85.9697 24.3716 86.7221 24.1749 87.5941 24.1749C88.5725 24.1749 89.3993 24.4221 90.0746 24.9166C90.7552 25.4058 91.1992 26.0758 91.4065 26.9265L89.4923 27.445C89.3435 26.9824 89.0962 26.6235 88.7506 26.3682C88.405 26.1077 88.0115 25.9774 87.5702 25.9774C87.0703 25.9774 86.6582 26.0971 86.3339 26.3363C86.0095 26.5703 85.7703 26.8946 85.6161 27.3094C85.4619 27.7241 85.3848 28.1947 85.3848 28.7211C85.3848 29.54 85.5682 30.202 85.9351 30.7071C86.302 31.2122 86.847 31.4648 87.5702 31.4648C88.0806 31.4648 88.4821 31.3478 88.7745 31.1139C89.0723 30.8799 89.2956 30.5423 89.4445 30.1009L91.4065 30.5396C91.1407 31.417 90.6754 32.0922 90.0108 32.5655C89.3461 33.0334 88.5326 33.2674 87.5702 33.2674ZM96.5756 33.2674C95.7143 33.2674 94.9619 33.0733 94.3185 32.6851C93.6751 32.297 93.1753 31.7626 92.819 31.082C92.4681 30.396 92.2926 29.6091 92.2926 28.7211C92.2926 27.8172 92.4734 27.0249 92.835 26.3443C93.1965 25.6637 93.699 25.132 94.3424 24.7491C94.9858 24.3663 95.7302 24.1749 96.5756 24.1749C97.4424 24.1749 98.1974 24.3689 98.8408 24.7571C99.4842 25.1453 99.984 25.6823 100.34 26.3682C100.697 27.0488 100.875 27.8331 100.875 28.7211C100.875 29.6144 100.694 30.404 100.332 31.0899C99.976 31.7705 99.4762 32.3049 98.8328 32.6931C98.1894 33.0759 97.437 33.2674 96.5756 33.2674ZM96.5756 31.4648C97.3413 31.4648 97.9103 31.2096 98.2825 30.6991C98.6547 30.1887 98.8408 29.5293 98.8408 28.7211C98.8408 27.8863 98.652 27.2216 98.2745 26.7271C97.897 26.2273 97.3307 25.9774 96.5756 25.9774C96.0599 25.9774 95.6345 26.0944 95.2995 26.3284C94.9698 26.557 94.7252 26.8787 94.5657 27.2934C94.4062 27.7029 94.3265 28.1788 94.3265 28.7211C94.3265 29.5559 94.5152 30.2232 94.8927 30.7231C95.2756 31.2176 95.8366 31.4648 96.5756 31.4648ZM102.791 33.0281V21.3036H104.714V33.0281H102.791Z" fill="#FBF7FD"/>
<defs>
<clipPath id="clip0_13_62">
<rect width="35.3567" height="40.056" fill="white"/>
</clipPath>
</defs>
</svg>
