<svg width="15" height="17" viewBox="0 0 15 17" fill="none" xmlns="http://www.w3.org/2000/svg">
<path d="M7.49519 0.304764C7.65802 0.304764 7.81891 0.341176 7.9659 0.411209C8.111 0.480379 8.23898 0.580918 8.3409 0.705154H8.34187L10.0186 2.68953L10.0225 2.69344L9.92488 2.77254V2.77351L10.0225 2.69441C10.0583 2.7383 10.0894 2.78529 10.1173 2.83406C10.5706 2.62706 11.0458 2.49209 11.4405 2.34285C11.7328 2.23248 12.0265 2.12697 12.3175 2.02254C12.6092 1.91781 12.8988 1.81409 13.1866 1.70613H13.1876C13.4696 1.6014 13.7861 1.67638 14.0186 1.80672C14.2525 1.93781 14.4872 2.17323 14.5372 2.48933C14.5775 2.7456 14.5961 3.00464 14.5938 3.26375L14.5841 3.52351C14.5199 4.50665 14.4814 5.48181 14.547 6.44246L14.5538 6.69832C14.5447 7.28165 14.3572 7.77255 14.0294 8.22957C13.8378 8.49657 13.6729 8.78377 13.505 9.08601C13.3396 9.38365 13.1682 9.69943 12.9727 10.0001C12.9245 10.0747 12.883 10.1524 12.8311 10.2452C12.7817 10.3338 12.7246 10.4348 12.6544 10.5323L12.6534 10.5313C12.5278 10.7067 12.4081 10.8857 12.2921 11.0665L12.2911 11.0655C11.9646 11.5749 11.7106 12.0918 11.3936 12.6456C11.1575 13.0576 10.9036 13.4601 10.6602 13.8546C10.4155 14.2513 10.1783 14.643 9.96687 15.0479C9.78803 15.3925 9.52442 15.8438 9.09285 16.088C8.59145 16.3716 7.99484 16.1769 7.70027 15.7237V15.7227C7.62034 15.5999 7.5427 15.4717 7.4698 15.3546C7.38806 15.488 7.30066 15.6302 7.19734 15.7657H7.19637C6.96392 16.0687 6.62193 16.2349 6.26961 16.2218C5.91362 16.2084 5.57996 16.0132 5.36824 15.6632C4.60709 14.4059 3.85025 13.1476 3.08406 11.8966V11.8956C2.57397 11.0661 2.08797 10.2597 1.57918 9.43367C1.21699 8.84451 0.91106 8.28636 0.547928 7.72566C0.401652 7.49985 0.348418 7.26621 0.329178 7.05281C0.311655 6.85803 0.321196 6.63069 0.318436 6.4825C0.295844 5.33296 0.307558 4.18168 0.309647 3.03914L0.3116 2.86824C0.318542 2.68509 0.345086 2.47026 0.446365 2.26961L0.447342 2.26765C0.682534 1.80922 1.18586 1.60599 1.69051 1.74715H1.69246C2.26877 1.91242 2.82766 2.12532 3.37215 2.33113H3.37312C3.79931 2.49321 4.22997 2.6417 4.66805 2.79597H4.66707C4.70857 2.80956 4.74825 2.82743 4.78719 2.84676C4.96545 2.49477 5.2458 2.26031 5.4073 2.0782L6.03816 1.38777C6.24512 1.1635 6.44932 0.940472 6.65047 0.704178C6.75225 0.580377 6.87977 0.480212 7.02449 0.411209C7.17148 0.341138 7.33236 0.304789 7.49519 0.304764ZM7.50496 1.03133C7.40809 1.03029 7.32802 1.06607 7.28328 1.11433C6.66827 1.77877 6.05833 2.44819 5.45515 3.1241C5.32486 3.27108 5.35042 3.4863 5.54207 3.60847H5.54109C5.63138 3.66171 5.7173 3.72197 5.79695 3.79012L5.88972 3.8868C5.91762 3.92207 5.94243 3.95982 5.96297 4.00008C6.00396 4.08051 6.0283 4.16886 6.03523 4.25887C6.04211 4.34871 6.03113 4.43889 6.00301 4.52449C5.97578 4.60729 5.93208 4.68337 5.87605 4.75008L5.87703 4.75105C5.87575 4.75264 5.87344 4.75338 5.87215 4.75496L5.87117 4.75789L5.87019 4.75691C5.76164 4.8884 5.61871 4.99755 5.43562 5.0284C5.29453 5.0521 5.16074 5.02462 5.04109 4.96883L4.92586 4.90437C4.77701 4.80603 4.67512 4.67259 4.63191 4.50789C4.59175 4.35452 4.61052 4.20354 4.6407 4.0782C4.68218 3.90319 4.66757 3.77852 4.63094 3.69637C4.59689 3.62022 4.53052 3.5494 4.40047 3.50008L4.39851 3.4991C3.45535 3.13414 2.5045 2.78853 1.54988 2.44539C1.43217 2.40309 1.35077 2.40706 1.29402 2.42488C1.23651 2.44297 1.17244 2.48522 1.10652 2.5743C1.07944 2.61094 1.06424 2.6508 1.05574 2.70808L1.04305 2.94734C1.03915 3.17376 1.03751 3.40034 1.03719 3.62703L1.04109 4.30769V5.54207C1.04089 5.94759 1.04404 6.34979 1.06453 6.75594V6.75691C1.07817 7.03287 1.07702 7.16619 1.16023 7.30281C1.66395 8.12491 2.16161 8.95366 2.66023 9.77547C3.54573 11.2363 4.43189 12.6965 5.31844 14.1563V14.1573C5.56874 14.5698 5.79042 14.9633 6.05183 15.336C6.13218 15.4499 6.22037 15.4846 6.29109 15.4864C6.36593 15.4882 6.46834 15.4535 6.57039 15.3419C6.71121 15.1774 6.83787 15.0013 6.94734 14.8145L6.95125 14.8077L6.99422 14.7286C7.01005 14.6972 7.03228 14.6533 7.05672 14.6104C7.0873 14.5568 7.12659 14.4976 7.17976 14.4395V13.5079L7.74324 14.4132C7.93234 14.7169 8.09153 14.9939 8.27644 15.2657L8.36824 15.379C8.45679 15.4684 8.53577 15.4927 8.5909 15.4942C8.66739 15.4962 8.79072 15.4559 8.93172 15.2823C9.12872 15.0295 9.30382 14.7597 9.45418 14.4766L9.45613 14.4718H9.45711C9.66677 14.0952 9.88978 13.7271 10.1085 13.3653C10.3283 13.0017 10.544 12.6434 10.7432 12.2764V12.2755C11.0331 11.7429 11.3246 11.1661 11.6905 10.6378L11.6915 10.6368C12.0505 10.1238 12.3764 9.58381 12.7003 9.03426C12.8691 8.74827 13.0349 8.46093 13.2022 8.17195C13.5327 7.60122 13.8379 7.22095 13.8448 6.65437L13.8419 6.53914C13.7669 5.27983 13.8388 3.99363 13.8419 2.76375L13.838 2.67976C13.8355 2.65629 13.832 2.63675 13.8272 2.62019C13.819 2.59166 13.8065 2.56853 13.7833 2.545L13.7823 2.54402C13.653 2.4126 13.5909 2.39797 13.5587 2.39461C13.5042 2.38896 13.4281 2.40432 13.2345 2.4698C12.4276 2.74275 11.6279 3.04215 10.8243 3.34285C10.7599 3.36692 10.6926 3.38832 10.6378 3.40633C10.5796 3.42542 10.5305 3.44225 10.4854 3.46101C10.3969 3.49788 10.3421 3.53529 10.3038 3.58308C10.2405 3.6624 10.2134 3.73379 10.2061 3.80183C10.2005 3.85515 10.2062 3.91804 10.2276 3.99324L10.255 4.07234V4.07332C10.3958 4.43447 10.2209 4.76247 9.94539 4.92683L9.82137 4.98738C9.47018 5.12157 9.10938 4.95724 8.94051 4.6407C8.76001 4.30304 8.89775 3.93072 9.18465 3.72566L9.1866 3.72469C9.22813 3.69548 9.27111 3.6725 9.29402 3.66023C9.3233 3.64456 9.33189 3.63973 9.33601 3.6368L9.33894 3.63484C9.52235 3.50804 9.54775 3.27237 9.4366 3.1368V3.13582C8.87563 2.45601 8.30511 1.78403 7.72469 1.12019H7.72371C7.67983 1.06989 7.6016 1.03242 7.50496 1.03133Z" fill="url(#paint0_linear_286_644)" stroke="#EFFFE8" stroke-width="0.609452"/>
<path d="M7.73468 0.907005L9.43878 2.91482L9.64093 3.1531L9.39679 3.34841C9.08779 3.59762 8.93411 3.81481 8.87726 3.9988C8.82486 4.16879 8.84358 4.34894 8.97003 4.56521C9.0663 4.72693 9.21602 4.85036 9.39288 4.91482C9.5687 4.97878 9.76096 4.98052 9.9378 4.9197C10.1818 4.83033 10.313 4.70305 10.3821 4.53786C10.4573 4.35818 10.4777 4.08857 10.3997 3.68533L10.3509 3.43044L10.595 3.34158L13.6107 2.24197L14.0198 2.09353V6.05935H0.859678V2.11404L1.26886 2.26345L4.23956 3.34353L4.35773 3.3865L4.41144 3.49978C4.46205 3.60746 4.47098 3.71324 4.46612 3.79763L4.4378 3.96951C4.35263 4.41235 4.57245 4.78778 4.96808 4.92556C5.15341 4.98478 5.35359 4.97731 5.53351 4.9031C5.71256 4.82914 5.85979 4.6948 5.94952 4.52322C6.13887 4.13636 6.02504 3.71985 5.63214 3.46365C5.5867 3.43399 5.52673 3.38469 5.48663 3.35427L5.22101 3.15212L5.44562 2.90603L7.27765 0.899193L7.51105 0.643333L7.73468 0.907005Z" fill="#0D881F" stroke="#EFFFE8" stroke-width="0.609452"/>
<path d="M14.2737 6.66624L13.9983 7.12718L13.177 8.49925L13.0882 8.64671H6.50515C6.52365 8.67587 6.54343 8.70685 6.56374 8.74046C7.58045 10.4279 8.60061 12.113 9.62429 13.7952C9.67226 13.8736 9.72556 13.9788 9.73171 14.1067C9.73809 14.241 9.69084 14.3543 9.6321 14.4485L9.63308 14.4494C9.41008 14.8091 9.18415 15.1921 8.89968 15.593L8.63113 15.9709L8.39089 15.5754L3.24831 7.12914L2.96706 6.66624H14.2737Z" fill="#0D881F" stroke="#EFFFE8" stroke-width="0.609452"/>
<path d="M1.36838 6.66801C1.77605 6.66807 2.17381 6.67214 2.57541 6.66801V6.66898C2.68874 6.66286 2.80175 6.68657 2.90159 6.74125C3.00295 6.7968 3.08498 6.88063 3.14084 6.98148H3.14182C4.4997 9.24927 5.86304 11.5153 7.23069 13.7803C7.28389 13.8684 7.33435 13.9787 7.33713 14.1104C7.33985 14.242 7.29324 14.3526 7.23948 14.4444C7.01466 14.839 6.76788 15.2208 6.49924 15.587L6.22971 15.9551L5.99338 15.5645L0.940649 7.21391L0.859594 7.08012L0.921118 6.93656C0.961004 6.84297 1.0316 6.76578 1.12131 6.71781L1.19163 6.68754C1.24847 6.66874 1.30853 6.66308 1.36838 6.66801Z" fill="url(#paint1_linear_286_644)" stroke="#EFFFE8" stroke-width="0.609452"/>
<path d="M13.1435 8.57784L12.8622 9.04073C12.5466 9.5609 12.25 10.0426 11.9599 10.53V10.531C11.895 10.639 11.804 10.7159 11.6913 10.7566C11.5944 10.7915 11.4987 10.7917 11.4462 10.7917C11.0288 10.7917 10.6117 10.792 10.1952 10.7946C10.2104 10.8176 10.2257 10.8414 10.2421 10.8659C10.2618 10.8955 10.2818 10.9277 10.3026 10.9597H11.6884L11.4228 11.4167C10.9861 12.1703 10.5783 12.8723 10.1366 13.6345L9.88076 14.0769L9.61318 13.6413L6.79385 9.04171L6.50967 8.57784H13.1435Z" fill="url(#paint2_linear_286_644)" stroke="#EFFFE8" stroke-width="0.609452"/>
<path d="M14.0461 5.74663L14.0159 6.07866C14.0096 6.14761 14.0137 6.19427 14.0119 6.30034C14.0104 6.39228 14.0034 6.50917 13.9602 6.6353L13.8889 6.84135H0.943588L0.889877 6.60503C0.836983 6.37537 0.862763 6.16695 0.86644 6.04253L0.875229 5.74663H14.0461Z" fill="url(#paint3_linear_286_644)" stroke="#EFFFE8" stroke-width="0.609452"/>
<path d="M7.47835 14.7771C7.28259 15.055 7.14335 15.3335 6.95491 15.5806C6.60159 16.0412 5.95358 16.0422 5.62904 15.5057C4.86849 14.2495 4.11107 12.989 3.34423 11.737C2.84016 10.9172 2.34289 10.0934 1.8383 9.27417C1.48916 8.70624 1.1662 8.11999 0.80346 7.55991C0.582045 7.2181 0.630202 6.83861 0.623397 6.47639C0.600889 5.33111 0.611882 4.1853 0.613975 3.03949C0.613975 2.82436 0.620257 2.60137 0.718663 2.40665C0.883546 2.08526 1.23425 1.93556 1.60851 2.04024C2.17068 2.20146 2.71768 2.40927 3.26467 2.61603C3.69546 2.77986 4.13096 2.93009 4.56646 3.08346C4.64707 3.10893 4.72138 3.15115 4.78452 3.20735C4.84767 3.26355 4.89822 3.33246 4.93287 3.40956C4.98521 2.86466 5.35162 2.5998 5.6348 2.2805C6.04727 1.81726 6.48068 1.37338 6.88216 0.901764C6.95616 0.810463 7.04962 0.736839 7.15571 0.686267C7.2618 0.635695 7.37784 0.609451 7.49537 0.609451C7.61289 0.609451 7.72894 0.635695 7.83502 0.686267C7.94111 0.736839 8.03457 0.810463 8.10857 0.901764C8.66691 1.56479 9.22629 2.22641 9.78672 2.88665C9.87451 2.99418 9.92908 3.12496 9.94375 3.263C10.4593 2.97092 11.0158 2.82959 11.5486 2.62807C12.1281 2.40927 12.7133 2.20931 13.2938 1.99156C13.6335 1.86542 14.1752 2.15226 14.2359 2.53646C14.2862 2.85629 14.3011 3.18069 14.2804 3.50378C14.2161 4.49046 14.1758 5.48186 14.2428 6.4633C14.2862 7.0841 14.1192 7.58137 13.7816 8.05194C13.3759 8.61726 13.0943 9.25585 12.7175 9.8353C12.6075 10.0054 12.5254 10.1897 12.4071 10.354C12.2783 10.5337 12.1544 10.7162 12.0354 10.9015C11.7046 11.4177 11.4335 11.9631 11.1293 12.4944C10.6635 13.3073 10.1311 14.0772 9.69721 14.9085C9.51872 15.2524 9.28893 15.6272 8.94294 15.8229C8.59694 16.0187 8.17296 15.891 7.95625 15.5575C7.87512 15.433 7.79922 15.3068 7.72018 15.1801C7.64114 15.0535 7.57048 14.932 7.47835 14.7771ZM7.48411 14.574C7.66627 14.8666 7.83534 15.1587 8.02482 15.4371C8.34779 15.9114 8.80998 15.9156 9.16801 15.4748C9.37753 15.2066 9.56318 14.9206 9.72286 14.6201C10.1359 13.8783 10.6049 13.1696 11.011 12.4216C11.3073 11.8772 11.5868 11.3224 11.9407 10.8115C12.3071 10.2881 12.6384 9.73951 12.9629 9.18885C13.1325 8.90148 13.299 8.61307 13.466 8.32465C13.79 7.7651 14.1894 7.26992 14.1464 6.52141C14.0721 5.27353 14.1433 4.01727 14.1464 2.76416C14.1464 2.60713 14.1245 2.4569 13.9999 2.33075C13.6911 2.01669 13.5042 2.05699 13.1373 2.18105C12.3249 2.45585 11.5209 2.75683 10.7179 3.05729C10.4897 3.14261 10.2311 3.18658 10.0662 3.39229C9.87361 3.63307 9.85686 3.89427 9.97097 4.18425C10.0573 4.40567 9.9338 4.61766 9.71239 4.70245C9.51924 4.77626 9.31353 4.69251 9.20937 4.49727C9.1141 4.3193 9.17534 4.1073 9.36221 3.97383C9.40984 3.94033 9.4669 3.91782 9.51244 3.88537C9.82284 3.67076 9.9113 3.23421 9.67261 2.94318C9.10939 2.26061 8.5364 1.58607 7.95364 0.919561C7.73222 0.665693 7.28625 0.663076 7.06013 0.906998C6.44352 1.57316 5.83284 2.24508 5.22809 2.92276C4.96218 3.22269 5.04279 3.65139 5.37779 3.86495C5.45622 3.91046 5.53033 3.96302 5.59921 4.02198C5.63734 4.05443 5.66868 4.09409 5.69142 4.1387C5.71416 4.18331 5.72784 4.23198 5.73168 4.2819C5.73553 4.33182 5.72945 4.38201 5.71382 4.42957C5.69818 4.47714 5.67328 4.52113 5.64056 4.55903C5.48353 4.75271 5.29771 4.78463 5.09409 4.65011C4.90617 4.52606 4.88733 4.35542 4.93706 4.14918C5.04175 3.70844 4.90042 3.36402 4.50836 3.21537C3.56146 2.84896 2.60775 2.50192 1.65248 2.15854C1.31748 2.03815 1.05209 2.13499 0.861039 2.39357C0.73803 2.56002 0.741693 2.75369 0.738553 2.94213C0.730701 3.39857 0.730702 3.85501 0.735936 4.31145C0.744834 5.1322 0.719186 5.95243 0.760538 6.77161C0.772577 7.01501 0.766819 7.24271 0.899773 7.46098C1.40332 8.28278 1.89954 9.10929 2.39942 9.93318C3.28508 11.3943 4.17127 12.8548 5.05797 14.3149C5.30189 14.7169 5.53378 15.1278 5.80335 15.512C6.06193 15.8784 6.49586 15.8784 6.79788 15.546C6.95244 15.3662 7.09049 15.1728 7.21035 14.9681C7.29201 14.8362 7.33231 14.6792 7.48411 14.5745V14.574ZM5.07629 3.79743C5.06164 3.9911 5.04541 4.15232 5.03808 4.31406C5.03232 4.44911 5.07734 4.56008 5.2239 4.59724C5.37046 4.63441 5.48562 4.59724 5.56675 4.46638C5.60597 4.41141 5.62242 4.3434 5.61267 4.27658C5.60291 4.20976 5.56771 4.1493 5.51441 4.10783C5.38669 4.00105 5.24065 3.91206 5.07734 3.79743H5.07629ZM9.75479 3.84663C9.6255 3.93457 9.51401 4.00366 9.40984 4.0827C9.28212 4.18006 9.24444 4.31249 9.32191 4.45382C9.40513 4.6051 9.54908 4.64592 9.70454 4.58416C9.86 4.52239 9.90397 4.39415 9.86733 4.23973C9.83854 4.11411 9.79771 3.9911 9.75584 3.84663H9.75479Z" fill="url(#paint4_linear_286_644)"/>
<path d="M1.16437 5.75503V2.54949L4.13541 3.62986C4.18461 3.73455 4.15582 3.82249 4.13855 3.91147C4.02548 4.49825 4.32437 5.02745 4.87136 5.21588C5.12616 5.29824 5.40192 5.28739 5.64947 5.18529C5.89701 5.08318 6.10023 4.89646 6.22288 4.65842C6.4846 4.12504 6.31344 3.54402 5.7989 3.2085C5.76435 3.18599 5.73346 3.15877 5.67065 3.11114L7.50269 1.10427L9.20596 3.11166C8.54067 3.64818 8.38416 4.16691 8.70712 4.71914C8.83926 4.94212 9.04454 5.11245 9.28806 5.2012C9.53158 5.28994 9.79832 5.29162 10.0429 5.20594C10.6559 4.98138 10.8658 4.48883 10.6993 3.62777L13.7149 2.52855V5.75503H1.16437Z" fill="#0D881F"/>
<path d="M8.6508 15.4166L3.50906 6.97093H13.7365L12.9158 8.34234H5.99853C6.07181 8.56062 6.19849 8.72445 6.30317 8.89771C7.32039 10.586 8.3411 12.2716 9.36529 13.9547C9.44119 14.0787 9.45218 14.164 9.37419 14.2886C9.14702 14.655 8.92822 15.0256 8.6508 15.4166Z" fill="#0D881F"/>
<path d="M6.25362 15.407L1.20139 7.05602C1.21408 7.02624 1.23657 7.00169 1.26514 6.98645C1.2937 6.97122 1.32662 6.96621 1.35842 6.97227C1.76514 6.97227 2.17185 6.97646 2.57856 6.97227C2.63969 6.9663 2.7012 6.97889 2.75508 7.0084C2.80895 7.0379 2.85269 7.08295 2.88058 7.13767C4.23873 9.40591 5.60177 11.6728 6.96969 13.9382C7.0503 14.0717 7.05396 14.1617 6.97545 14.2941C6.75639 14.6786 6.51538 15.0502 6.25362 15.407Z" fill="url(#paint5_linear_286_644)"/>
<path d="M12.6021 8.88253C12.288 9.40021 11.9891 9.88492 11.6981 10.3738C11.6353 10.4785 11.5505 10.4869 11.4458 10.4869C10.9815 10.4869 10.5167 10.4869 10.0519 10.4905C9.94718 10.4905 9.83621 10.4801 9.71896 10.5382C9.79853 10.7821 9.95974 10.98 10.0917 11.1935C10.144 11.2778 10.2345 11.2642 10.3167 11.2642H11.1595C10.7224 12.0185 10.3157 12.7188 9.87338 13.482L7.05361 8.88253H12.6021Z" fill="url(#paint6_linear_286_644)"/>
<path d="M1.18654 6.53654C1.14519 6.357 1.16613 6.21149 1.17084 6.05132H13.7124C13.6973 6.21777 13.7276 6.37323 13.6716 6.53654H1.18654Z" fill="url(#paint7_linear_286_644)"/>
<defs>
<linearGradient id="paint0_linear_286_644" x1="12.0092" y1="-0.487967" x2="2.62031" y2="12.1897" gradientUnits="userSpaceOnUse">
<stop stop-color="#DCB367"/>
<stop offset="1" stop-color="#CE9A2D"/>
</linearGradient>
<linearGradient id="paint1_linear_286_644" x1="1.20139" y1="11.1896" x2="7.03041" y2="11.1896" gradientUnits="userSpaceOnUse">
<stop stop-color="#DCB367"/>
<stop offset="1" stop-color="#CE9A2D"/>
</linearGradient>
<linearGradient id="paint2_linear_286_644" x1="7.05414" y1="11.1825" x2="12.5994" y2="11.1825" gradientUnits="userSpaceOnUse">
<stop stop-color="#DCB367"/>
<stop offset="1" stop-color="#CE9A2D"/>
</linearGradient>
<linearGradient id="paint3_linear_286_644" x1="13.5674" y1="3.85026" x2="-0.579016" y2="9.47513" gradientUnits="userSpaceOnUse">
<stop stop-color="#DCB367"/>
<stop offset="1" stop-color="#CE9A2D"/>
</linearGradient>
<linearGradient id="paint4_linear_286_644" x1="12.0092" y1="-0.487967" x2="2.62031" y2="12.1897" gradientUnits="userSpaceOnUse">
<stop stop-color="#DCB367"/>
<stop offset="1" stop-color="#CE9A2D"/>
</linearGradient>
<linearGradient id="paint5_linear_286_644" x1="1.20139" y1="11.1896" x2="7.03041" y2="11.1896" gradientUnits="userSpaceOnUse">
<stop stop-color="#DCB367"/>
<stop offset="1" stop-color="#CE9A2D"/>
</linearGradient>
<linearGradient id="paint6_linear_286_644" x1="7.05414" y1="11.1825" x2="12.5994" y2="11.1825" gradientUnits="userSpaceOnUse">
<stop stop-color="#DCB367"/>
<stop offset="1" stop-color="#CE9A2D"/>
</linearGradient>
<linearGradient id="paint7_linear_286_644" x1="13.5674" y1="3.85026" x2="-0.579016" y2="9.47513" gradientUnits="userSpaceOnUse">
<stop stop-color="#DCB367"/>
<stop offset="1" stop-color="#CE9A2D"/>
</linearGradient>
</defs>
</svg>
