<svg width="17" height="12" viewBox="0 0 17 12" fill="none" xmlns="http://www.w3.org/2000/svg">
<path d="M6.11523 8.9189C7.53508 7.69308 9.61529 7.69311 11.0352 8.9189C11.1066 8.98484 11.1484 9.07842 11.1504 9.17671C11.1523 9.27497 11.1136 9.36959 11.0449 9.43843L8.82227 11.7285C8.75709 11.7958 8.66791 11.8339 8.5752 11.8339C8.48252 11.8339 8.39327 11.7958 8.32812 11.7285L6.10449 9.43843C6.03601 9.36958 5.99802 9.27481 6 9.17671C6.00204 9.07844 6.04378 8.98478 6.11523 8.9189ZM3.10938 6.17867C6.16845 3.27407 10.9067 3.27407 13.9658 6.17867C14.0346 6.24674 14.0742 6.3406 14.0752 6.43843C14.0761 6.53629 14.0383 6.63072 13.9707 6.70015L12.6855 8.02534C12.5532 8.16062 12.339 8.16372 12.2031 8.03218C11.1986 7.10366 9.89135 6.58874 8.53613 6.58882C7.18188 6.58944 5.87592 7.10431 4.87207 8.03218C4.73619 8.16371 4.52201 8.16062 4.38965 8.02534L3.10547 6.70015C3.03772 6.6308 2.99919 6.53635 3 6.43843C3.00091 6.34057 3.04052 6.24674 3.10938 6.17867ZM0.107422 3.44234C4.79934 -1.14745 12.2016 -1.14745 16.8936 3.44234C16.9614 3.51051 16.9994 3.60394 17 3.70113C17.0004 3.79807 16.9633 3.89106 16.8965 3.95992L15.6094 5.28609C15.4768 5.42192 15.2615 5.42386 15.127 5.28999C13.3394 3.55527 10.9675 2.58799 8.50098 2.58784C6.03419 2.58784 3.66186 3.55513 1.87402 5.28999C1.73956 5.42407 1.52411 5.42213 1.3916 5.28609L0.104492 3.95992C0.037467 3.89088 -0.000626441 3.79734 0 3.70015C0.000740038 3.60313 0.0396297 3.51036 0.107422 3.44234Z" fill="#F3FEFC" fill-opacity="0.98"/>
</svg>
