<svg width="16" height="16" viewBox="0 0 16 16" fill="none" xmlns="http://www.w3.org/2000/svg">
<path d="M5.66699 8C6.21928 8 6.66699 7.55228 6.66699 7C6.66699 6.44772 6.21928 6 5.66699 6C5.11471 6 4.66699 6.44772 4.66699 7C4.66699 7.55228 5.11471 8 5.66699 8Z" stroke="white"/>
<path d="M9.66699 11.334C10.2193 11.334 10.667 10.8863 10.667 10.334C10.667 9.7817 10.2193 9.33398 9.66699 9.33398C9.11471 9.33398 8.66699 9.7817 8.66699 10.334C8.66699 10.8863 9.11471 11.334 9.66699 11.334Z" stroke="white"/>
<path d="M12.333 6C12.8853 6 13.333 5.55228 13.333 5C13.333 4.44772 12.8853 4 12.333 4C11.7807 4 11.333 4.44772 11.333 5C11.333 5.55228 11.7807 6 12.333 6Z" stroke="white"/>
<path d="M10.2894 9.53087L12 6M6.38834 7.71227L8.80253 9.53087M2 12.6667L5.05971 7.91947" stroke="white" stroke-linecap="round" stroke-linejoin="round"/>
<path d="M13.333 14H5.99967C3.79979 14 2.69984 14 2.01643 13.3166C1.33301 12.6331 1.33301 11.5332 1.33301 9.33333V2" stroke="white" stroke-linecap="round"/>
</svg>
