<svg width="16" height="16" viewBox="0 0 16 16" fill="none" xmlns="http://www.w3.org/2000/svg">
<path d="M2.33325 6.33398V12.334C2.33325 12.6446 2.33325 12.7999 2.384 12.9225C2.45166 13.0858 2.58145 13.2156 2.7448 13.2833C2.86731 13.334 3.02263 13.334 3.33325 13.334C3.64388 13.334 3.79919 13.334 3.92171 13.2833C4.08506 13.2156 4.21485 13.0858 4.28251 12.9225C4.33325 12.7999 4.33325 12.6446 4.33325 12.334V6.33398C4.33325 6.02336 4.33325 5.86804 4.28251 5.74553C4.21485 5.58218 4.08506 5.45239 3.92171 5.38473C3.79919 5.33398 3.64388 5.33398 3.33325 5.33398C3.02263 5.33398 2.86731 5.33398 2.7448 5.38473C2.58145 5.45239 2.45166 5.58218 2.384 5.74553C2.33325 5.86804 2.33325 6.02336 2.33325 6.33398Z" stroke="#B5B5B5" stroke-linecap="square" stroke-linejoin="round"/>
<path d="M7 3.66602V12.3323C7 12.6429 7 12.7983 7.05073 12.9208C7.1184 13.0841 7.2482 13.2139 7.41153 13.2816C7.53407 13.3323 7.6894 13.3323 8 13.3323C8.3106 13.3323 8.46593 13.3323 8.58847 13.2816C8.7518 13.2139 8.8816 13.0841 8.94927 12.9208C9 12.7983 9 12.6429 9 12.3323V3.66602C9 3.35539 9 3.20008 8.94927 3.07756C8.8816 2.91421 8.7518 2.78442 8.58847 2.71676C8.46593 2.66602 8.3106 2.66602 8 2.66602C7.6894 2.66602 7.53407 2.66602 7.41153 2.71676C7.2482 2.78442 7.1184 2.91421 7.05073 3.07756C7 3.20008 7 3.35539 7 3.66602Z" stroke="#B5B5B5" stroke-linecap="square" stroke-linejoin="round"/>
<path d="M11.6667 8.33398V12.334C11.6667 12.6446 11.6667 12.7999 11.7175 12.9225C11.7851 13.0858 11.9149 13.2156 12.0783 13.2833C12.2008 13.334 12.3561 13.334 12.6667 13.334C12.9773 13.334 13.1327 13.334 13.2552 13.2833C13.4185 13.2156 13.5483 13.0858 13.616 12.9225C13.6667 12.7999 13.6667 12.6446 13.6667 12.334V8.33398C13.6667 8.02338 13.6667 7.86805 13.616 7.74552C13.5483 7.58218 13.4185 7.45238 13.2552 7.38472C13.1327 7.33398 12.9773 7.33398 12.6667 7.33398C12.3561 7.33398 12.2008 7.33398 12.0783 7.38472C11.9149 7.45238 11.7851 7.58218 11.7175 7.74552C11.6667 7.86805 11.6667 8.02338 11.6667 8.33398Z" stroke="#B5B5B5" stroke-linecap="square" stroke-linejoin="round"/>
</svg>
