<svg width="20" height="20" viewBox="0 0 20 20" fill="none" xmlns="http://www.w3.org/2000/svg">
<path d="M8.33509 2.5C5.87979 2.52673 4.50948 2.68274 3.59899 3.59323C2.50024 4.69198 2.50024 6.4604 2.50024 9.99717C2.50024 13.5341 2.50024 15.3025 3.59899 16.4012C4.69774 17.5 6.46617 17.5 10.003 17.5C13.5398 17.5 15.3083 17.5 16.407 16.4012C17.3177 15.4906 17.4735 14.1198 17.5003 11.6636" stroke="white" stroke-width="1.25" stroke-linecap="round" stroke-linejoin="round"/>
<path d="M11.6667 2.5H15.0001C16.1786 2.5 16.7678 2.5 17.134 2.86612C17.5001 3.23223 17.5001 3.82149 17.5001 5V8.33333M16.6667 3.33333L9.16675 10.8333" stroke="white" stroke-width="1.25" stroke-linecap="round" stroke-linejoin="round"/>
</svg>
