<svg width="13" height="13" viewBox="0 0 13 13" fill="none" xmlns="http://www.w3.org/2000/svg">
<path d="M5.53271 0.690724C5.83206 -0.230587 7.13547 -0.230587 7.43482 0.690723L8.27988 3.29154C8.41375 3.70356 8.79771 3.98252 9.23093 3.98252H11.9656C12.9343 3.98252 13.3371 5.22214 12.5534 5.79154L10.341 7.39893C9.9905 7.65357 9.84385 8.10494 9.97772 8.51696L10.8228 11.1178C11.1221 12.0391 10.0676 12.8052 9.28393 12.2358L7.07155 10.6284C6.72106 10.3738 6.24647 10.3738 5.89598 10.6284L3.6836 12.2358C2.89988 12.8052 1.8454 12.0391 2.14475 11.1178L2.98981 8.51696C3.12368 8.10494 2.97703 7.65357 2.62654 7.39893L0.414156 5.79154C-0.369558 5.22214 0.033217 3.98252 1.00194 3.98252H3.7366C4.16982 3.98252 4.55378 3.70356 4.68765 3.29154L5.53271 0.690724Z" fill="url(#paint0_linear_3279_120020)"/>
<defs>
<linearGradient id="paint0_linear_3279_120020" x1="6.48376" y1="3.76367" x2="13.9838" y2="18.7637" gradientUnits="userSpaceOnUse">
<stop stop-color="#B1F128"/>
<stop offset="0.5625" stop-color="#00C65F"/>
<stop offset="1" stop-color="#009288"/>
</linearGradient>
</defs>
</svg>
