<svg width="24" height="24" viewBox="0 0 24 24" fill="none" xmlns="http://www.w3.org/2000/svg">
<path d="M16.4504 12.1817C16.6981 12.814 16.0076 13.5726 14.6267 15.0899C13.1702 16.6902 12.4201 17.4904 11.5 17.5C10.5799 17.4904 9.8298 16.6902 8.37331 15.0899C6.99239 13.5726 6.30193 12.814 6.54964 12.1817C6.55868 12.1586 6.56851 12.1359 6.5791 12.1135C6.84928 11.542 7.74477 11.5029 9.5 11.5002V4.99998C9.5 4.53501 9.5 4.30253 9.5511 4.11179C9.6898 3.59414 10.0941 3.1898 10.6118 3.05111C10.8025 3 11.035 3 11.5 3C11.9649 3 12.1974 3 12.3882 3.05111C12.9058 3.1898 13.3102 3.59414 13.4489 4.11179C13.5 4.30253 13.5 4.53501 13.5 4.99998V11.5002C15.2552 11.5029 16.1507 11.542 16.4209 12.1135C16.4315 12.1359 16.4413 12.1586 16.4504 12.1817Z" stroke="white" stroke-width="1.5" stroke-linecap="round" stroke-linejoin="round"/>
<path d="M4.5 21H18.5" stroke="white" stroke-width="1.5" stroke-linecap="round" stroke-linejoin="round"/>
</svg>
