<svg width="235" height="235" viewBox="0 0 235 235" fill="none" xmlns="http://www.w3.org/2000/svg">
<path d="M19.5833 186.042V73.9175C19.5833 59.7797 19.5833 52.7107 21.9658 47.1613C24.9364 40.2423 30.4505 34.7281 37.3695 31.7575C42.9189 29.375 49.9183 29.375 64.1257 29.375H68.9637C74.8884 29.375 80.4948 32.0573 84.2123 36.6707L102.005 58.75M102.005 58.75H156.667C170.376 58.75 177.231 58.75 182.468 61.418C187.074 63.765 190.818 67.5098 193.165 72.1158C195.833 77.3522 195.833 84.2071 195.833 97.9167V107.708M102.005 58.75H68.5416" stroke="#B5B5B5" stroke-width="1.5" stroke-linecap="round" stroke-linejoin="round"/>
<path d="M30.9222 151.912L33.8441 144.64C41.0298 126.753 44.6228 117.81 52.1151 112.76C59.6074 107.709 69.2815 107.709 88.6299 107.709H167.554C193.879 107.709 207.041 107.709 212.892 116.313C218.743 124.918 213.855 137.086 204.078 161.422L201.156 168.694C193.97 186.582 190.377 195.525 182.885 200.575C175.392 205.626 165.718 205.626 146.37 205.626H67.4461C41.1211 205.626 27.9585 205.626 22.1077 197.022C16.2569 188.417 21.1453 176.249 30.9222 151.912Z" stroke="#B5B5B5" stroke-width="1.5" stroke-linejoin="round"/>
</svg>
