<svg width="24" height="24" viewBox="0 0 24 24" fill="none" xmlns="http://www.w3.org/2000/svg">
<path d="M11.422 4.79004C16.1963 3.16245 18.5834 2.34866 19.8674 3.63261C21.1513 4.91656 20.3375 7.30371 18.71 12.078L17.6016 15.3292C16.3517 18.9958 15.7267 20.8291 14.6964 20.9808C14.4195 21.0216 14.1328 20.9971 13.8587 20.9091C12.8395 20.5819 12.3007 18.6489 11.2231 14.783C10.9841 13.9255 10.8646 13.4967 10.5924 13.1692C10.5134 13.0742 10.4258 12.9866 10.3308 12.9076C10.0033 12.6354 9.5745 12.5159 8.71705 12.2769C4.85111 11.1993 2.91814 10.6605 2.5909 9.64127C2.50292 9.36724 2.47837 9.08053 2.51916 8.80355C2.67088 7.77332 4.50419 7.14834 8.1708 5.89838L11.422 4.79004Z" stroke="white" stroke-width="1.5"/>
</svg>
