<svg width="24" height="24" viewBox="0 0 24 24" fill="none" xmlns="http://www.w3.org/2000/svg">
<path d="M18.4999 10.5V9.99995C18.4999 6.22876 18.4998 4.34311 17.3283 3.17154C16.1567 2 14.2711 2 10.4999 2C6.72883 2 4.8432 2.00006 3.67163 3.17159C2.50009 4.34315 2.50007 6.22872 2.50004 9.99988L2.5 14.5C2.49997 17.7874 2.49996 19.4312 3.40788 20.5375C3.57412 20.7401 3.75986 20.9258 3.96243 21.0921C5.06877 22 6.71249 22 9.99994 22" stroke="white" stroke-width="1.5" stroke-linecap="round" stroke-linejoin="round"/>
<path d="M6.5 7H14.5M6.5 11H10.5" stroke="white" stroke-width="1.5" stroke-linecap="round" stroke-linejoin="round"/>
<path d="M17.5 18.5L16 17.95V15.5M11.5 17.5C11.5 19.9853 13.5147 22 16 22C18.4853 22 20.5 19.9853 20.5 17.5C20.5 15.0147 18.4853 13 16 13C13.5147 13 11.5 15.0147 11.5 17.5Z" stroke="white" stroke-width="1.5" stroke-linecap="round" stroke-linejoin="round"/>
</svg>
