<svg width="14" height="14" viewBox="0 0 14 14" fill="none" xmlns="http://www.w3.org/2000/svg">
<path d="M8.16667 1.75H2.91667C2.27233 1.75 1.75 2.27233 1.75 2.91667C1.75 3.561 2.27233 4.08333 2.91667 4.08333H10.5C10.5 3.54085 10.5 3.26961 10.4404 3.04706C10.2786 2.44316 9.80682 1.97145 9.20296 1.80963C8.98042 1.75 8.70917 1.75 8.16667 1.75Z" stroke="#B5B5B5" stroke-linecap="round" stroke-linejoin="round"/>
<path d="M1.75 2.91602V8.74935C1.75 10.3992 1.75 11.2242 2.26256 11.7368C2.77513 12.2493 3.60008 12.2493 5.25 12.2493H8.75C10.3999 12.2493 11.2248 12.2493 11.7374 11.7368C12.25 11.2242 12.25 10.3992 12.25 8.74935V7.58268C12.25 5.93278 12.25 5.10781 11.7374 4.59525C11.2248 4.08268 10.3999 4.08268 8.75 4.08268H4.08333" stroke="#B5B5B5" stroke-linecap="round" stroke-linejoin="round"/>
<path d="M12.2498 7H11.0832C10.8119 7 10.6763 7 10.5651 7.02981C10.2631 7.11072 10.0272 7.34656 9.94631 7.64855C9.9165 7.75979 9.9165 7.89542 9.9165 8.16667C9.9165 8.43792 9.9165 8.57354 9.94631 8.68478C10.0272 8.98678 10.2631 9.22262 10.5651 9.30353C10.6763 9.33333 10.8119 9.33333 11.0832 9.33333H12.2498" stroke="#B5B5B5" stroke-linecap="round" stroke-linejoin="round"/>
</svg>
