<svg width="20" height="20" viewBox="0 0 20 20" fill="none" xmlns="http://www.w3.org/2000/svg">
<path d="M2.5 13.3332L6.22472 9.60842C6.50769 9.3255 6.89148 9.1665 7.29167 9.1665C7.69185 9.1665 8.07564 9.3255 8.35858 9.60842L11.6667 12.9165M11.6667 12.9165L12.9167 14.1665M11.6667 12.9165L13.3081 11.2751C13.591 10.9922 13.9748 10.8332 14.375 10.8332C14.7752 10.8332 15.159 10.9922 15.4419 11.2751L17.5 13.3332" stroke="#B5B5B5" stroke-width="1.25" stroke-linecap="round" stroke-linejoin="round"/>
<path d="M9.99992 2.0835C6.47514 2.0835 4.71275 2.0835 3.54389 3.0818C3.3779 3.22356 3.22332 3.37815 3.08156 3.54413C2.08325 4.713 2.08325 6.47539 2.08325 10.0002C2.08325 13.5249 2.08325 15.2873 3.08156 16.4562C3.22332 16.6222 3.3779 16.7767 3.54389 16.9185C4.71275 17.9168 6.47514 17.9168 9.99992 17.9168C13.5247 17.9168 15.2871 17.9168 16.4559 16.9185C16.6219 16.7767 16.7765 16.6222 16.9183 16.4562C17.9166 15.2873 17.9166 13.5249 17.9166 10.0002" stroke="#B5B5B5" stroke-width="1.25" stroke-linecap="round" stroke-linejoin="round"/>
<path d="M17.9166 5.00016H14.9999M14.9999 5.00016H12.0833M14.9999 5.00016V2.0835M14.9999 5.00016V7.91683" stroke="#B5B5B5" stroke-width="1.25" stroke-linecap="round" stroke-linejoin="round"/>
</svg>
