<svg width="22" height="24" viewBox="0 0 22 24" fill="none" xmlns="http://www.w3.org/2000/svg">
<g opacity="0.67" clip-path="url(#clip0_3331_39511)">
<path d="M10.27 4.28424L10.5047 2.10547C10.5047 2.10547 15.5728 7.50212 16.0153 11.92C16.4577 16.3379 15.9415 18.3557 10.7728 24.0004C10.7728 24.0004 19.8633 13.053 10.2767 4.28424H10.27Z" fill="#78A627"/>
<path d="M10.9276 19.7295L10.693 21.9083C10.693 21.9083 5.598 16.5116 5.15555 12.0938C4.71309 7.67589 5.22929 5.66471 10.4248 0.0200195C10.4248 0.0200195 1.28739 10.9675 10.9276 19.7295Z" fill="#78A627"/>
<path d="M10.6795 21.895H5.60468L1.63597 16.0626C0.603566 14.5542 0.0605491 12.8112 0.000213925 11.0615C0.000213925 11.0011 0.000213925 10.9341 0.000213925 10.8737C-0.0266017 8.97654 0.516415 7.07933 1.63597 5.44358L5.33653 0H10.4114L6.71083 5.44358C5.59798 7.07933 5.05496 8.97654 5.07507 10.8737C5.07507 10.9341 5.07507 11.0011 5.07507 11.0615C5.12871 12.8112 5.67172 14.5542 6.70412 16.0626L10.6728 21.895H10.6795Z" fill="#B1F128"/>
<path d="M21.1845 13.1267C21.2113 15.0239 20.6683 16.9211 19.5487 18.5569L15.8481 24.0004H10.7733L14.4738 18.5569C15.5867 16.9211 16.1364 15.0239 16.1096 13.1267C16.1096 13.0664 16.1096 12.9993 16.1096 12.939C16.056 11.1893 15.5129 9.44625 14.4805 7.93787L10.5051 2.10547H15.58L19.5487 7.93787C20.5811 9.45295 21.1241 11.1893 21.1778 12.939C21.1778 12.9993 21.1778 13.0664 21.1778 13.1267H21.1845Z" fill="#B1F128"/>
</g>
<defs>
<clipPath id="clip0_3331_39511">
<rect width="21.1844" height="24" fill="white"/>
</clipPath>
</defs>
</svg>
