<svg width="123" height="46" viewBox="0 0 123 46" fill="none" xmlns="http://www.w3.org/2000/svg">
<path d="M59.7144 20.0251C59.4215 19.7322 59.4215 19.2574 59.7144 18.9645C60.0073 18.6716 60.4822 18.6716 60.775 18.9645L63.25 21.4394L65.7249 18.9645C66.0177 18.6716 66.4926 18.6716 66.7855 18.9645C67.0784 19.2573 67.0784 19.7322 66.7855 20.0251L64.3105 22.5L66.7855 24.9749C67.0784 25.2678 67.0784 25.7427 66.7855 26.0355C66.4926 26.3284 66.0177 26.3284 65.7249 26.0355L63.25 23.5607L60.775 26.0355C60.4822 26.3284 60.0073 26.3284 59.7145 26.0355C59.4215 25.7426 59.4215 25.2678 59.7145 24.9749L62.1893 22.5001L59.7144 20.0251Z" fill="white"/>
<path fill-rule="evenodd" clip-rule="evenodd" d="M56.6213 14.8787L49 22.5L56.6213 30.1213C57.184 30.684 57.947 31 58.7427 31H69C70.6569 31 72 29.6569 72 28V17C72 15.3431 70.6569 14 69 14H58.7427C57.947 14 57.184 14.3161 56.6213 14.8787ZM69 29.7H58.7427C58.2917 29.7 57.8594 29.5209 57.5405 29.2021L50.8385 22.5L57.5405 15.7979C57.8594 15.4791 58.2917 15.3 58.7427 15.3H69C69.9388 15.3 70.7 16.0611 70.7 17V28C70.7 28.9389 69.9388 29.7 69 29.7Z" fill="white"/>
</svg>
