<svg width="96" height="96" viewBox="0 0 96 96" fill="none" xmlns="http://www.w3.org/2000/svg">
<path d="M10 32.7471C10.4162 24.3482 11.6615 19.1117 15.3866 15.3866C19.1117 11.6615 24.3482 10.4162 32.7471 10M86 32.7471C85.5836 24.3482 84.3384 19.1117 80.6136 15.3866C76.8884 11.6615 71.6516 10.4162 63.2528 10M63.2528 86C71.6516 85.5836 76.8884 84.3384 80.6136 80.6136C84.3384 76.8884 85.5836 71.6516 86 63.2528M32.747 86C24.3482 85.5836 19.1117 84.3384 15.3866 80.6136C11.6615 76.8884 10.4162 71.6516 10 63.2528" stroke="#B5B5B5" stroke-width="6" stroke-linecap="round" stroke-linejoin="round"/>
<path d="M70 68L69.1912 64.6044C68.5228 61.7988 66.3956 59.57 63.6244 58.7716L54 55.9976L53.9988 50.1272C57.5856 47.7064 59.9988 43.182 59.9988 38C59.9988 30.268 54.626 24 47.9988 24C41.3712 24 35.9986 30.268 35.9986 38C35.9986 43.182 38.4118 47.7064 41.9988 50.1272L42 55.9976L32.4354 58.7976C29.7499 59.584 27.6703 61.716 26.9515 64.4204L26 68" stroke="#B5B5B5" stroke-width="6" stroke-linecap="round" stroke-linejoin="round"/>
</svg>
