<svg width="64" height="64" viewBox="0 0 24 24" fill="none" xmlns="http://www.w3.org/2000/svg">
<path d="M17.81 4.47003C16.19 3.13003 14.13 2.38003 12 2.38003C9.87 2.38003 7.81 3.13003 6.19 4.47003" stroke="#B1F128" stroke-width="1.5" stroke-linecap="round" stroke-linejoin="round"/>
<path d="M12 11.23C13.56 11.23 14.83 12.5 14.83 14.06V14.65C14.83 15.22 15.17 15.56 15.74 15.56C16.31 15.56 16.65 15.22 16.65 14.65V12.11C16.65 9.54002 14.57 7.46002 12 7.46002C9.43 7.46002 7.35 9.54002 7.35 12.11V15.73C7.35 15.89 7.48 16.03 7.64 16.03H7.83C8.4 16.03 8.74 16.37 8.74 16.94V18.23C8.74 19.33 9.64 20.23 10.74 20.23H13.26C14.36 20.23 15.26 19.33 15.26 18.23V18.15" stroke="#B1F128" stroke-width="1.5" stroke-linecap="round" stroke-linejoin="round"/>
<path d="M13.43 17.65C13.43 18.23 13.04 18.57 12 18.57C10.96 18.57 10.57 18.23 10.57 17.65" stroke="#B1F128" stroke-width="1.5" stroke-linecap="round" stroke-linejoin="round"/>
<path d="M12 15.07V15.08" stroke="#B1F128" stroke-width="2" stroke-linecap="round" stroke-linejoin="round"/>
</svg>
