<svg width="72" height="72" viewBox="0 0 72 72" fill="none" xmlns="http://www.w3.org/2000/svg">
<path d="M22.2719 57.7375H16.5398C7.76281 57.1106 3.82227 50.3637 3.82227 44.3631C3.82227 38.3625 7.76284 31.5857 16.3906 30.9886C17.6146 30.8692 18.6893 31.8245 18.7788 33.0784C18.8684 34.3024 17.9431 35.3771 16.6892 35.4667C10.8976 35.8846 8.30033 40.2432 8.30033 44.3929C8.30033 48.5426 10.8976 52.9012 16.6892 53.3192H22.2719C23.4959 53.3192 24.5109 54.3342 24.5109 55.5582C24.5109 56.7822 23.4959 57.7375 22.2719 57.7375Z" fill="#292D32"/>
<path d="M49.7661 57.7362C49.7064 57.7362 49.6766 57.7362 49.6169 57.7362C48.3929 57.7362 47.2585 56.7212 47.2585 55.4972C47.2585 54.2135 48.2138 53.2581 49.4676 53.2581C53.1396 53.2581 56.4236 51.9744 58.991 49.6757C63.6482 45.6156 63.9467 39.7643 62.6928 35.6445C61.439 31.5545 57.9461 26.8674 51.8559 26.1211C50.8707 26.0017 50.0944 25.2554 49.9153 24.2702C48.7212 17.1053 44.8702 12.1496 39.0188 10.3583C32.9884 8.47754 25.9428 10.3285 21.5543 14.926C17.2852 19.3742 16.3 25.6136 18.7779 32.48C19.1958 33.6443 18.5989 34.9279 17.4346 35.3459C16.2703 35.7639 14.9865 35.1668 14.5686 34.0025C11.5534 25.5837 12.9267 17.5232 18.3302 11.851C23.8531 6.05939 32.7197 3.76063 40.3324 6.08922C47.3182 8.23869 52.2439 14.0005 54.0352 22.0013C60.1253 23.3745 65.0214 28.0019 66.9619 34.3906C69.0815 41.3465 67.1709 48.5114 61.9465 53.0492C58.6327 56.0346 54.3039 57.7362 49.7661 57.7362Z" fill="#292D32"/>
<path d="M35.8241 66.5135C29.8235 66.5135 24.2111 63.3191 21.1361 58.1544C20.8077 57.6469 20.4793 57.0498 20.2107 56.393C19.1956 54.2734 18.6582 51.8553 18.6582 49.3475C18.6582 39.8839 26.3605 32.1816 35.8241 32.1816C45.2877 32.1816 52.99 39.8839 52.99 49.3475C52.99 51.8851 52.4527 54.2734 51.378 56.4826C51.1391 57.0498 50.8108 57.6469 50.4525 58.2141C47.4373 63.3191 41.8247 66.5135 35.8241 66.5135ZM35.8241 36.6597C28.8383 36.6597 23.1363 42.3618 23.1363 49.3475C23.1363 51.1985 23.5244 52.93 24.2707 54.5122C24.5096 55.0197 24.7185 55.4377 24.9573 55.8258C27.2262 59.6769 31.3759 62.0354 35.7942 62.0354C40.2126 62.0354 44.3622 59.6769 46.6013 55.8855C46.8699 55.4377 47.1089 55.0197 47.288 54.6018C48.0941 52.9598 48.4821 51.2283 48.4821 49.3774C48.5119 42.3618 42.8099 36.6597 35.8241 36.6597Z" fill="#292D32"/>
<path d="M34.1227 54.543C33.5555 54.543 32.9883 54.334 32.5405 53.8862L29.5849 50.9307C28.7191 50.0649 28.7191 48.6319 29.5849 47.7662C30.4506 46.9004 31.8836 46.9004 32.7494 47.7662L34.1825 49.1992L38.959 44.7808C39.8845 43.9449 41.2876 44.0046 42.1235 44.9002C42.9594 45.7958 42.8997 47.2288 42.0041 48.0647L35.6453 53.9459C35.1975 54.334 34.6601 54.543 34.1227 54.543Z" fill="#292D32"/>
</svg>
