<svg width="393" height="581" viewBox="0 0 393 581" fill="none" xmlns="http://www.w3.org/2000/svg">
<path d="M1.20892 114.898C-1.47497 114.903 -3.83605 113.125 -4.57282 110.545L-24.7833 39.7507C-26.3629 34.2174 -20.0021 29.8492 -15.405 33.3102L78.4277 103.954C83.0248 107.415 80.5854 114.736 74.8311 114.747L1.20892 114.898Z" fill="#B1F128"/>
<path d="M340.127 339.111C357.176 346.173 376.825 341.709 389.15 327.974L391.248 325.636C388.796 345.052 399.626 363.757 417.758 371.267L420.437 372.377L411.535 374.64C394.705 378.919 382.06 392.786 379.308 409.878L379.185 410.694L377.895 419.789L376.503 417.245C367.079 400.03 347.314 391.283 328.276 395.816L330.374 393.478C342.698 379.743 345.015 359.726 336.154 343.538L331.854 335.685L340.127 339.111Z" stroke="#B1F128" stroke-width="61"/>
</svg>
