<svg width="36" height="41" viewBox="0 0 36 41" fill="none" xmlns="http://www.w3.org/2000/svg">
<g clip-path="url(#clip0_4734_16651)">
<path d="M17.1414 7.14992L17.533 3.51355C17.533 3.51355 25.9917 12.5206 26.7302 19.894C27.4686 27.2674 26.6071 30.6353 17.9805 40.0563C17.9805 40.0563 33.1526 21.7849 17.1525 7.14992H17.1414Z" fill="#78A627"/>
<path d="M18.2379 32.9287L17.8463 36.5651C17.8463 36.5651 9.34276 27.5581 8.6043 20.1847C7.86584 12.8112 8.72738 9.45457 17.3987 0.0335693C17.3987 0.0335693 2.14834 18.3049 18.2379 32.9287Z" fill="#78A627"/>
<path d="M17.8238 36.5427H9.35386L2.73007 26.8084C1.00699 24.291 0.100692 21.3819 -7.46024e-06 18.4616C-7.46024e-06 18.3609 -7.46024e-06 18.249 -7.46024e-06 18.1483C-0.0447628 14.9818 0.861533 11.8154 2.73007 9.08533L8.9063 0H17.3762L11.2 9.08533C9.34267 11.8154 8.43637 14.9818 8.46994 18.1483C8.46994 18.249 8.46994 18.3609 8.46994 18.4616C8.55945 21.3819 9.46574 24.291 11.1888 26.8084L17.8126 36.5427H17.8238Z" fill="#B1F128"/>
<path d="M35.3565 21.908C35.4013 25.0744 34.495 28.2409 32.6264 30.9709L26.4502 40.0563H17.9803L24.1565 30.9709C26.0138 28.2409 26.9313 25.0744 26.8866 21.908C26.8866 21.8073 26.8866 21.6954 26.8866 21.5947C26.7971 18.6744 25.8908 15.7653 24.1677 13.2478L17.5327 3.51355H26.0027L32.6264 13.2478C34.3495 15.7765 35.2558 18.6744 35.3453 21.5947C35.3453 21.6954 35.3453 21.8073 35.3453 21.908H35.3565Z" fill="#B1F128"/>
</g>
<defs>
<clipPath id="clip0_4734_16651">
<rect width="35.3567" height="40.056" fill="white"/>
</clipPath>
</defs>
</svg>
