<svg width="16" height="16" viewBox="0 0 16 16" fill="none" xmlns="http://www.w3.org/2000/svg">
<path d="M14.3332 8.45786V7.54279C14.3332 6.4528 14.3332 5.90779 14.1302 5.41774C13.9272 4.92769 13.5418 4.54231 12.7711 3.77156L12.2286 3.22909C11.4578 2.45834 11.0725 2.07297 10.5824 1.86998C10.0924 1.66699 9.54737 1.66699 8.45737 1.66699H7.5423C6.45231 1.66699 5.9073 1.66699 5.41725 1.86998C4.9272 2.07297 4.54182 2.45834 3.77107 3.22909L3.2286 3.77156C2.45785 4.54231 2.07248 4.92769 1.86949 5.41774C1.6665 5.90779 1.6665 6.4528 1.6665 7.54279V8.45786C1.6665 9.54786 1.6665 10.0929 1.86949 10.5829C2.07248 11.073 2.45785 11.4583 3.2286 12.2291L3.77107 12.7716C4.54182 13.5423 4.9272 13.9277 5.41725 14.1307C5.9073 14.3337 6.45231 14.3337 7.5423 14.3337H8.45737C9.54737 14.3337 10.0924 14.3337 10.5824 14.1307C11.0725 13.9277 11.4578 13.5423 12.2286 12.7716L12.7711 12.2291C13.5418 11.4583 13.9272 11.073 14.1302 10.5829C14.3332 10.0929 14.3332 9.54786 14.3332 8.45786Z" stroke="#7C7C7C" stroke-width="1.5" stroke-linecap="round" stroke-linejoin="round"/>
<path d="M8 5.33301V8.33301" stroke="#7C7C7C" stroke-width="1.5" stroke-linecap="round" stroke-linejoin="round"/>
<path d="M8 10.6592V10.6658" stroke="#7C7C7C" stroke-width="1.8" stroke-linecap="round" stroke-linejoin="round"/>
</svg>
