<svg width="235" height="128" viewBox="0 0 235 128" fill="none" xmlns="http://www.w3.org/2000/svg">
<rect x="176.613" y="114.08" width="33.2279" height="56.6578" rx="16.6139" transform="rotate(-102.302 176.613 114.08)" fill="#B1F128"/>
<rect x="178.656" y="111.453" width="33.2279" height="56.6578" rx="16.6139" transform="rotate(-102.302 178.656 111.453)" fill="url(#paint0_linear_3279_111239)"/>
<circle cx="190.099" cy="91.9532" r="3.40799" transform="rotate(-12.3022 190.099 91.9532)" fill="url(#paint1_linear_3279_111239)"/>
<circle cx="202.587" cy="89.2325" r="3.40799" transform="rotate(-12.3022 202.587 89.2325)" fill="url(#paint2_linear_3279_111239)"/>
<circle cx="215.076" cy="86.5098" r="3.40799" transform="rotate(-12.3022 215.076 86.5098)" fill="url(#paint3_linear_3279_111239)"/>
<path d="M110.544 50.8365C123.54 47.3543 136.131 44.5798 147.88 42.5227L215.385 24.4349L221.719 48.0756L221.67 48.0887C223.592 61.722 180.32 84.6621 123.675 99.8402C67.029 115.018 18.0835 116.788 12.9313 104.02L12.8888 104.032L12.7253 103.421C12.7152 103.386 12.7036 103.352 12.6942 103.316C12.6847 103.281 12.6775 103.245 12.6687 103.21L6.55434 80.3909L74.0522 62.3049C85.2562 58.2116 97.5481 54.3187 110.544 50.8365Z" fill="#498F00"/>
<ellipse cx="110.961" cy="52.4063" rx="108.098" ry="25.2909" transform="rotate(-15 110.961 52.4063)" fill="#156200"/>
<ellipse cx="110.961" cy="52.4084" rx="90.9657" ry="17.9484" transform="rotate(-15 110.961 52.4084)" fill="#B1F128"/>
<path fill-rule="evenodd" clip-rule="evenodd" d="M194.474 36.8343C197.853 33.8238 199.424 31.1104 198.824 28.8725C196.256 19.2869 154.835 22.0571 106.307 35.0599C57.7804 48.0627 20.5235 66.3742 23.092 75.9598C23.6914 78.1967 26.4065 79.7607 30.834 80.6789C30.5488 80.3041 30.3469 79.902 30.2318 79.4724C27.8774 70.6856 62.7175 53.7157 108.049 41.5691C153.381 29.4224 192.039 26.6987 194.393 35.4855C194.508 35.916 194.535 36.3661 194.474 36.8343Z" fill="#156200"/>
<rect opacity="0.15" x="161.082" y="62.7754" width="16.6284" height="23.4233" transform="rotate(-22.5549 161.082 62.7754)" fill="#7DBF00"/>
<path opacity="0.2" d="M157.923 57.7056C157.923 57.7056 163.324 56.2636 166.56 54.546C169.795 52.8285 173.756 50.7396 173.756 50.7396L176.571 56.2639L161.195 62.769L157.923 57.7056Z" fill="#7DBF00"/>
<path opacity="0.3" d="M53.4008 60.7565L64.1326 56.0168L70.5325 53.543L173.708 50.7066L165.449 55.0989L158.104 57.7038L53.4008 60.7565Z" fill="#7DBF00"/>
<defs>
<linearGradient id="paint0_linear_3279_111239" x1="182.348" y1="168.111" x2="224.962" y2="144.682" gradientUnits="userSpaceOnUse">
<stop stop-color="#B1F128"/>
<stop offset="0.41" stop-color="#79A726"/>
<stop offset="1" stop-color="#466B06"/>
</linearGradient>
<linearGradient id="paint1_linear_3279_111239" x1="190.099" y1="90.8172" x2="192.939" y2="96.4972" gradientUnits="userSpaceOnUse">
<stop stop-color="#B1F128"/>
<stop offset="0.5625" stop-color="#00C65F"/>
<stop offset="1" stop-color="#009288"/>
</linearGradient>
<linearGradient id="paint2_linear_3279_111239" x1="202.587" y1="88.0965" x2="205.427" y2="93.7765" gradientUnits="userSpaceOnUse">
<stop stop-color="#B1F128"/>
<stop offset="0.5625" stop-color="#00C65F"/>
<stop offset="1" stop-color="#009288"/>
</linearGradient>
<linearGradient id="paint3_linear_3279_111239" x1="215.076" y1="85.3739" x2="217.916" y2="91.0538" gradientUnits="userSpaceOnUse">
<stop stop-color="#B1F128"/>
<stop offset="0.5625" stop-color="#00C65F"/>
<stop offset="1" stop-color="#009288"/>
</linearGradient>
</defs>
</svg>
