<svg width="19" height="20" viewBox="0 0 19 20" fill="none" xmlns="http://www.w3.org/2000/svg">
<path d="M10.5489 4.40952C15.0757 6.63458 17.3391 7.74707 17.3391 9.56289C17.3391 11.3786 15.0757 12.4912 10.5489 14.7163L7.46624 16.2315C3.98975 17.9403 2.25147 18.7947 1.41567 18.1735C1.19102 18.0065 1.00562 17.7865 0.874023 17.5304C0.384705 16.5784 1.37055 14.8305 3.34218 11.335C3.77952 10.5596 3.99823 10.1719 4.03734 9.74786C4.04865 9.62482 4.04865 9.50094 4.03734 9.3779C3.99823 8.95385 3.77952 8.56614 3.34221 7.79084C1.37056 4.29523 0.384734 2.54742 0.874044 1.59532C1.0056 1.33934 1.19098 1.11925 1.41567 0.952238C2.25144 0.331037 3.98971 1.18546 7.46625 2.89429L10.5489 4.40952Z" stroke="white" stroke-width="1.5"/>
</svg>
