<svg width="47" height="44" viewBox="0 0 47 44" fill="none" xmlns="http://www.w3.org/2000/svg">
<rect x="0.945801" width="45.9906" height="44" rx="8" fill="black"/>
<path d="M21.8586 18.6109L24.917 16.8732L15.4719 11.489L13.2102 10.1977C12.9796 10.0668 12.7187 9.99862 12.4536 10C12.1884 10.0014 11.9283 10.0724 11.6991 10.2058C11.4699 10.3392 11.2798 10.5303 11.1476 10.7602C11.0154 10.99 10.9458 11.2506 10.9458 11.5157V29.9328C10.9459 30.202 11.0178 30.4663 11.154 30.6984C11.2903 30.9306 11.4861 31.1222 11.7211 31.2535C11.9461 31.3808 12.2004 31.4472 12.4589 31.4459C12.7418 31.449 13.0198 31.3721 13.261 31.2241L20.6663 26.6793L18.4019 25.2918C18.2052 25.1697 18.0254 25.0223 17.8672 24.8533L13.9935 27.2273V14.1143L21.8586 18.6109Z" fill="#FFBC00"/>
<path d="M36.1905 12.748C35.9598 12.6145 35.6979 12.5444 35.4313 12.5449C35.1681 12.5452 34.9093 12.6133 34.6801 12.7427L32.413 14.034L26.176 17.5842L23.1176 19.3219L19.0808 21.6184C18.8595 21.7443 18.6735 21.924 18.5402 22.1409C18.4068 22.3578 18.3303 22.6048 18.3178 22.8591C18.3052 23.1134 18.3571 23.3668 18.4685 23.5957C18.5799 23.8246 18.7473 24.0218 18.9551 24.1688L19.0407 24.225L21.8504 25.944L34.6293 33.7771C34.8589 33.9176 35.1219 33.9945 35.3911 33.9997C35.6602 34.005 35.926 33.9384 36.1609 33.8069C36.3959 33.6754 36.5916 33.4837 36.7278 33.2515C36.8641 33.0193 36.9361 32.755 36.9364 32.4858V14.066C36.9386 13.8003 36.8708 13.5385 36.7399 13.3072C36.609 13.0759 36.4195 12.883 36.1905 12.748ZM33.9155 29.7749L24.7484 24.1608L22.8102 22.9738L29.1568 19.362L33.9155 16.6539V29.7749Z" fill="#FFBC00"/>
</svg>
